<?xml version="1.0" standalone="no"?>
<!DOCTYPE svg PUBLIC "-//W3C//DTD SVG 20010904//EN"
 "http://www.w3.org/TR/2001/REC-SVG-20010904/DTD/svg10.dtd">
<svg version="1.0" xmlns="http://www.w3.org/2000/svg"
 width="297.000000pt" height="170.000000pt" viewBox="0 0 297.000000 170.000000"
 preserveAspectRatio="xMidYMid meet">

<g transform="translate(0.000000,170.000000) scale(0.100000,-0.100000)"
fill="#000000" stroke="none">
<path d="M0 850 l0 -850 1485 0 1485 0 0 850 c0 962 7 895 -81 798 -40 -45
-50 -51 -66 -42 -18 11 -19 15 -22 55 -1 18 -3 19 -16 9 -9 -8 -13 -21 -9 -32
4 -14 0 -21 -15 -25 -12 -3 -21 -11 -21 -19 0 -7 6 -11 14 -8 7 3 16 -1 19
-10 4 -10 -10 -20 -48 -36 -29 -12 -56 -29 -60 -38 -5 -14 -7 -14 -15 -2 -8
13 -10 13 -10 -1 0 -8 -16 -23 -35 -32 -49 -23 -58 -22 -51 8 4 14 3 24 -1 23
-11 -4 -56 42 -49 50 3 3 6 2 6 -2 0 -4 9 2 20 12 24 22 19 44 -19 82 l-26 25
-23 -21 c-24 -23 -29 -44 -9 -44 6 0 1 -9 -13 -20 -25 -19 -22 -24 13 -21 16
2 21 -7 15 -26 -2 -5 -7 -7 -11 -5 -5 1 -6 -2 -2 -8 3 -5 -1 -13 -9 -16 -22
-8 -20 -21 4 -27 11 -3 20 -10 20 -17 0 -6 -4 -8 -10 -5 -5 3 -21 -4 -34 -17
-40 -37 -56 -49 -56 -42 0 3 -7 1 -15 -6 -8 -7 -15 -9 -15 -4 0 5 -5 2 -10 -6
-9 -13 -10 -13 -10 0 0 13 -1 13 -10 0 -6 -10 -10 -11 -10 -2 0 6 -9 12 -19
12 -11 0 -21 8 -23 18 -2 12 -8 6 -21 -20 -21 -43 -37 -57 -38 -31 0 10 -6 2
-13 -17 -7 -19 -19 -35 -27 -35 -8 0 -16 -13 -19 -30 -4 -24 -10 -30 -30 -30
-14 0 -33 -8 -42 -19 -17 -18 -18 -18 -24 -1 -6 15 -10 12 -24 -16 -9 -19 -22
-33 -28 -31 -7 1 -12 -6 -13 -15 0 -15 -2 -15 -9 2 -8 18 -9 18 -9 -5 -1 -20
-3 -22 -11 -10 -7 12 -10 12 -10 1 0 -7 -6 -11 -15 -7 -8 3 -15 0 -15 -7 0 -8
-3 -8 -8 -2 -12 17 -46 12 -54 -8 -4 -10 -12 -16 -17 -13 -5 3 -11 -4 -14 -15
-3 -12 -10 -18 -15 -15 -6 3 -13 0 -15 -6 -4 -8 -6 -7 -6 4 -1 13 -8 15 -28
12 -15 -3 -31 -11 -35 -17 -6 -9 -8 -9 -8 1 0 21 -16 13 -30 -15 -11 -23 -14
-25 -18 -10 -4 18 -4 18 -18 0 -8 -11 -13 -13 -14 -5 0 18 -20 15 -20 -4 0 -8
-4 -13 -9 -10 -5 3 -25 8 -46 12 -28 4 -49 -1 -90 -22 -30 -15 -56 -33 -59
-40 -8 -20 14 -17 29 3 7 9 22 17 34 18 26 2 27 -4 4 -21 -15 -11 -16 -13 -2
-14 8 0 25 9 36 20 16 14 32 18 60 15 21 -2 37 -7 36 -12 -2 -12 59 -8 84 5
38 20 39 13 4 -18 l-34 -30 36 0 c19 0 37 -4 39 -10 2 -5 69 -11 155 -12 84
-2 153 -6 153 -10 0 -4 -46 -9 -102 -12 -57 -2 -130 -9 -163 -14 -55 -8 -50
-9 67 -11 70 0 129 -5 132 -9 3 -5 -72 -7 -165 -5 -110 2 -168 0 -164 -6 3 -6
12 -8 20 -4 8 3 15 0 15 -6 0 -6 9 -11 21 -11 11 0 28 -7 36 -16 13 -13 17
-13 24 -2 7 10 9 10 10 -2 0 -10 3 -8 8 5 8 19 8 19 16 -4 5 -18 9 -21 16 -10
6 10 9 8 9 -8 0 -14 6 -23 15 -23 8 0 15 -7 15 -15 0 -14 24 -20 58 -16 6 1
12 -3 12 -9 0 -6 5 -8 10 -5 6 3 10 -3 10 -14 0 -10 -6 -22 -12 -25 -7 -3 9
-5 35 -3 47 2 48 1 45 -24 -6 -40 36 -69 45 -32 2 10 4 6 2 -9 -1 -15 1 -26 4
-25 3 0 23 -2 43 -6 27 -6 37 -13 40 -30 2 -12 9 -22 17 -22 8 0 20 -16 27
-35 7 -19 13 -27 13 -17 2 33 20 17 38 -33 15 -43 19 -48 24 -28 3 13 11 22
17 20 7 -1 12 5 12 13 0 18 20 20 21 3 0 -7 4 -4 9 7 5 11 9 15 9 10 1 -6 11
-12 23 -12 13 -1 25 -8 27 -14 2 -7 15 -23 29 -36 14 -13 20 -23 13 -23 -18 0
-7 -84 13 -88 24 -5 19 -30 -6 -34 -14 -2 -23 -10 -22 -19 2 -22 -93 -31 -196
-19 -59 7 -80 6 -97 -6 -30 -19 -136 -18 -175 2 -17 9 -39 14 -49 11 -10 -3
-20 0 -21 5 -2 6 -48 9 -113 7 -197 -5 -297 -3 -500 10 -278 17 -271 16 -277
66 -2 22 -8 30 -23 30 -17 0 -20 8 -23 57 -2 48 0 60 18 75 26 23 26 53 0 53
-17 0 -20 7 -20 43 0 50 7 62 27 46 7 -6 13 -8 13 -5 0 11 36 -27 49 -51 6
-13 18 -23 26 -23 27 0 85 -34 86 -49 0 -11 2 -12 6 -3 10 25 41 13 53 -22 14
-45 82 -122 98 -112 7 4 12 16 12 27 0 12 7 19 19 19 10 0 21 6 24 14 4 10 19
12 56 8 55 -5 53 -7 152 90 27 26 49 53 49 60 0 9 3 9 9 -2 6 -8 7 -19 3 -25
-3 -5 2 -4 11 4 22 17 21 23 -4 49 l-20 22 30 -2 c35 -3 81 19 81 39 0 8 -12
13 -34 13 -19 0 -38 5 -41 10 -4 6 5 10 19 10 44 0 28 18 -21 26 -27 3 -54 11
-60 16 -7 6 -20 8 -28 4 -8 -3 -15 -1 -15 4 0 5 -7 7 -15 4 -21 -8 -19 -24 3
-25 14 0 14 -2 -3 -8 -28 -12 -36 -4 -30 30 4 21 1 29 -9 29 -8 0 -16 -5 -18
-12 -3 -7 -11 -9 -24 -4 -13 6 -15 10 -6 13 10 4 8 9 -6 19 -17 12 -24 11 -52
-3 -34 -17 -143 -26 -134 -11 3 4 14 8 24 8 10 0 22 5 26 12 5 8 2 9 -9 5 -12
-5 -17 -1 -17 12 0 22 -21 33 -41 20 -10 -6 -22 1 -40 21 -22 24 -28 26 -33
14 -3 -9 -12 -14 -20 -11 -8 3 -23 -1 -34 -9 -17 -12 -21 -12 -26 1 -3 8 -13
15 -21 15 -9 0 -14 4 -10 9 7 13 -7 20 -45 25 -39 4 -45 10 -30 33 9 14 10 15
6 1 -4 -13 5 -18 44 -23 26 -4 64 -2 84 3 20 6 36 8 36 5 0 -3 7 0 15 7 8 6
23 9 36 5 15 -5 19 -4 14 5 -9 15 24 39 45 33 8 -3 -5 7 -30 23 -49 30 -62 43
-53 57 3 5 12 -1 20 -13 10 -13 21 -19 33 -15 10 3 22 0 26 -6 5 -9 2 -10 -10
-6 -10 4 -15 3 -11 -3 3 -6 15 -10 26 -10 26 0 20 21 -9 36 -37 18 -34 21 13
14 34 -5 45 -4 45 7 0 7 -12 13 -27 14 -16 1 -21 3 -12 6 9 2 45 -3 80 -11 57
-13 65 -13 85 2 13 10 23 22 22 27 0 6 0 19 1 30 2 19 2 19 15 3 16 -22 38
-24 30 -3 -7 17 21 21 32 4 3 -6 15 -9 25 -6 11 3 17 1 13 -4 -10 -16 12 -9
33 10 11 11 37 23 57 26 29 6 36 12 36 30 0 13 7 26 16 29 8 3 12 2 9 -4 -3
-6 -1 -10 4 -10 20 0 11 29 -11 42 -13 7 -23 19 -23 27 0 8 -6 16 -13 19 -7 2
-10 -2 -6 -12 4 -12 0 -16 -15 -16 -12 0 -36 -7 -54 -15 -18 -8 -24 -10 -13
-3 36 25 69 58 63 65 -4 3 -17 -2 -29 -13 l-23 -19 23 26 c23 26 32 53 10 31
-15 -15 -32 -16 -23 -2 3 6 1 10 -4 10 -6 0 -11 6 -11 14 0 18 -98 109 -109
101 -5 -3 -12 3 -16 14 -6 20 -22 21 -77 6 -16 -4 -25 -12 -22 -17 4 -6 -3 -5
-15 1 -18 10 -26 8 -50 -16 l-28 -28 0 43 c0 36 3 41 19 36 16 -5 18 1 18 43
l-1 48 -38 -42 c-21 -23 -46 -64 -56 -90 -24 -63 -32 -73 -66 -73 -15 0 -30
-4 -34 -9 -3 -5 -18 -12 -34 -16 -34 -7 -85 -61 -77 -81 3 -8 1 -14 -4 -14 -6
0 -10 5 -10 10 0 6 -11 16 -25 22 -22 10 -26 17 -23 47 2 29 7 36 23 33 16 -2
20 3 19 28 -3 55 -4 59 -22 64 -19 6 -26 35 -10 37 4 1 14 2 21 3 6 1 11 9 11
19 -1 9 2 17 6 17 5 0 6 9 3 20 -3 11 -11 20 -18 20 -7 0 -19 8 -26 18 -13 16
-13 16 5 2 11 -8 20 -13 20 -11 1 2 11 1 24 -3 13 -4 29 -3 36 3 7 6 16 8 19
4 4 -3 17 -1 30 5 12 6 42 13 67 16 25 3 68 10 95 15 28 4 100 16 160 25 61
10 133 21 160 25 28 5 -305 9 -752 10 l-803 1 0 -850z m877 752 c-15 -2 -25
-8 -22 -13 4 -5 1 -9 -4 -9 -6 0 -11 5 -11 11 0 6 -6 9 -14 6 -8 -3 -16 0 -19
6 -3 9 10 11 47 7 33 -3 41 -5 23 -8z m-477 -1 c0 -12 -20 -25 -27 -18 -7 7 6
27 18 27 5 0 9 -4 9 -9z m253 -7 c63 -6 83 -16 55 -27 -7 -3 4 -6 24 -6 20 -1
40 4 43 9 3 6 1 10 -5 10 -6 0 -8 5 -5 10 9 15 35 12 35 -5 0 -9 6 -12 15 -9
11 5 13 2 8 -12 -5 -13 -3 -16 10 -11 23 9 53 -3 36 -14 -10 -6 -10 -11 1 -24
7 -9 19 -14 26 -11 29 11 22 -11 -13 -41 -21 -18 -32 -33 -25 -33 7 0 11 -4 7
-9 -3 -5 0 -13 5 -16 8 -5 6 -13 -6 -26 -15 -17 -16 -19 -1 -19 18 0 12 -30
-9 -42 -16 -10 -6 -48 13 -48 11 0 13 -4 5 -12 -16 -21 -12 -68 7 -68 14 -1
14 -2 -2 -11 -21 -12 -40 -2 -33 18 3 8 2 12 -2 9 -12 -7 -39 28 -36 47 1 9
-6 19 -17 22 -10 4 -19 10 -19 15 0 12 -59 40 -84 40 -27 0 -97 37 -113 60 -7
10 -26 20 -43 23 -38 8 -74 41 -67 61 3 9 1 18 -5 22 -17 11 13 24 57 24 22 0
47 5 55 11 11 7 3 9 -32 7 -26 -1 -50 1 -53 4 -6 6 64 23 130 31 17 2 2 5 -32
6 -59 1 -81 10 -65 25 4 4 20 5 37 2 16 -3 60 -8 98 -12z m-389 -50 c15 -6 15
-8 -1 -20 -16 -12 -15 -14 14 -20 18 -3 31 -10 28 -14 -6 -10 -55 0 -55 11 0
4 -10 17 -22 29 l-22 20 21 0 c12 0 29 -3 37 -6z m139 -21 c-7 -2 -19 -2 -25
0 -7 3 -2 5 12 5 14 0 19 -2 13 -5z m994 -69 c-3 -3 -12 -4 -19 -1 -8 3 -5 6
6 6 11 1 17 -2 13 -5z m-480 -106 c-3 -8 -6 -5 -6 6 -1 11 2 17 5 13 3 -3 4
-12 1 -19z m648 2 c-12 -20 -43 -31 -51 -18 -4 7 -4 10 1 6 4 -4 17 -1 29 7
24 18 29 19 21 5z m-55 -39 c0 -6 -4 -13 -10 -16 -5 -3 -10 1 -10 9 0 9 5 16
10 16 6 0 10 -4 10 -9z m38 -15 c-22 -16 -24 -40 -2 -32 9 3 12 2 9 -5 -4 -6
-13 -8 -21 -5 -8 3 -14 1 -14 -4 0 -6 6 -10 13 -11 6 0 2 -5 -10 -11 -25 -12
-40 -41 -24 -46 6 -2 9 -8 5 -13 -10 -16 -24 1 -24 30 0 15 9 36 20 46 11 10
20 24 20 31 0 7 8 18 18 23 24 15 30 13 10 -3z m-579 -138 c8 -2 16 -15 18
-28 3 -23 3 -23 -22 4 -14 15 -25 32 -25 39 0 8 2 9 8 1 4 -6 13 -13 21 -16z
m-86 -3 c-3 -9 -8 -14 -10 -11 -3 3 -2 9 2 15 9 16 15 13 8 -4z m-23 1 c0 -3
-4 -8 -10 -11 -5 -3 -10 -1 -10 4 0 6 5 11 10 11 6 0 10 -2 10 -4z m190 -27
c0 -6 -4 -7 -10 -4 -5 3 -10 1 -10 -6 0 -7 -3 -10 -6 -6 -10 10 5 39 16 32 5
-3 10 -11 10 -16z m-40 1 c0 -5 -2 -10 -4 -10 -3 0 -8 5 -11 10 -3 6 -1 10 4
10 6 0 11 -4 11 -10z m109 -113 c60 -36 72 -52 43 -60 -26 -6 -44 6 -37 25 4
10 0 18 -12 22 -23 8 -71 46 -58 45 6 0 34 -14 64 -32z m-516 -4 c19 -16 43
-34 53 -41 22 -14 15 -13 -42 12 -22 10 -46 26 -52 37 -17 27 -1 24 41 -8z
m1971 19 c2 -4 -11 -8 -29 -8 -21 0 -30 3 -22 8 16 10 44 10 51 0z m-817 -68
c-3 -3 -20 -4 -39 -2 l-33 4 35 10 c31 9 52 2 37 -12z m113 16 c0 -5 -4 -10
-10 -10 -5 0 -10 5 -10 10 0 6 5 10 10 10 6 0 10 -4 10 -10z m-1140 -35 c7 -8
19 -15 26 -15 8 0 14 -4 14 -10 0 -14 -2 -13 -51 15 -33 18 -39 25 -23 25 12
0 27 -7 34 -15z m1621 -15 c-50 -23 -51 -23 -51 -9 0 5 4 8 9 5 4 -3 17 1 27
9 10 8 28 14 39 14 12 1 2 -7 -24 -19z m-271 -4 c0 -11 -19 -15 -25 -6 -3 5 1
10 9 10 9 0 16 -2 16 -4z m-925 -106 c-4 -6 -84 -9 -213 -8 l-207 2 155 6 c85
3 181 7 213 8 37 1 56 -2 52 -8z m95 6 c0 -8 -48 -12 -66 -5 -13 5 -7 8 24 8
23 1 42 -1 42 -3z m1195 -11 c6 -2 -96 -3 -225 -4 -129 0 -244 4 -255 8 -19 8
459 3 480 -4z m-1325 -40 c27 -16 25 -17 -38 -19 -24 -1 -37 1 -30 6 7 4 9 8
3 9 -5 0 -1 4 10 9 27 11 26 11 55 -5z m-350 -40 c0 -2 -18 -14 -40 -25 -48
-25 -53 -18 -7 10 32 20 47 25 47 15z m1555 -13 c-3 -3 -11 0 -18 7 -9 10 -8
11 6 5 10 -3 15 -9 12 -12z m52 -18 c-3 -3 -12 -4 -19 -1 -8 3 -5 6 6 6 11 1
17 -2 13 -5z m-837 -46 c0 -4 -13 -2 -30 3 -29 11 -36 20 -24 32 7 7 53 -24
54 -35z m-924 -3 c-51 -36 -88 -48 -49 -16 12 10 19 22 15 26 -4 5 0 6 10 2 9
-3 24 1 35 8 10 8 22 15 28 15 5 0 -12 -16 -39 -35z m1954 -5 c0 -5 -10 -10
-22 -9 -22 0 -22 1 -3 9 11 5 21 9 23 9 1 1 2 -3 2 -9z m-1072 -25 c-3 -3 -9
2 -12 12 -6 14 -5 15 5 6 7 -7 10 -15 7 -18z m-578 -31 c0 -44 -1 -45 -27 -42
-22 2 -28 -1 -29 -17 0 -11 4 -28 9 -39 6 -13 5 -21 -3 -26 -20 -13 0 -32 26
-26 20 5 24 3 24 -18 0 -19 -6 -25 -27 -28 -25 -3 -28 -7 -28 -38 0 -46 -23
-56 -133 -61 -170 -7 -245 -5 -250 9 -2 6 -8 9 -13 6 -6 -3 -7 5 -2 23 4 15 8
49 8 76 0 52 6 58 29 25 l15 -21 20 24 c11 13 21 33 21 44 0 22 54 49 123 61
20 3 40 10 43 15 3 5 14 9 24 9 16 0 18 -7 17 -42 -1 -24 -6 -46 -10 -49 -5
-3 -1 -13 7 -22 9 -8 16 -24 16 -34 0 -10 5 -25 10 -33 7 -11 10 -5 10 23 0
20 3 37 8 37 4 0 6 19 5 42 0 24 2 48 7 53 4 6 6 18 5 28 -2 9 1 17 6 17 5 0
9 7 9 15 0 8 3 14 8 13 4 0 14 1 22 5 12 4 34 12 48 16 1 1 2 -20 2 -45z m661
29 c13 -16 12 -17 -3 -4 -17 13 -22 21 -14 21 2 0 10 -8 17 -17z m-277 -142
l26 -15 -31 -13 c-39 -16 -52 -17 -43 -1 4 7 7 28 6 48 -1 27 1 31 7 15 5 -11
21 -27 35 -34z m-910 -27 c12 -5 16 -21 16 -65 0 -32 -4 -59 -9 -59 -5 0 -7
-9 -4 -20 3 -12 0 -20 -6 -20 -7 0 -9 5 -6 10 4 6 2 17 -4 24 -9 11 -8 18 4
29 20 21 19 34 -5 47 -16 8 -18 15 -10 29 5 10 6 21 3 25 -8 8 1 8 21 0z m54
-65 c-18 -12 -24 37 -6 58 11 14 13 12 16 -17 2 -20 -2 -36 -10 -41z m2032 11
c0 -11 -4 -20 -9 -20 -7 0 -8 17 -2 38 4 10 11 -2 11 -18z m40 -16 c0 -26 -17
-33 -26 -9 -8 20 3 48 16 40 5 -3 10 -17 10 -31z m43 1 c17 0 77 -57 77 -73 0
-11 3 -13 8 -5 5 8 14 5 32 -9 l25 -21 -27 7 c-20 4 -26 3 -23 -6 4 -9 -8 -13
-39 -13 -42 0 -45 2 -51 31 -3 18 -12 37 -20 44 -19 16 -21 65 -2 53 6 -4 15
-8 20 -8z m-510 -302 c-7 -2 -19 -2 -25 0 -7 3 -2 5 12 5 14 0 19 -2 13 -5z"/>
<path d="M1487 1526 c-28 -26 -35 -46 -16 -46 5 0 7 5 4 10 -7 12 2 12 30 1
26 -11 53 15 39 37 -16 25 -29 24 -57 -2z"/>
<path d="M1307 1511 c-3 -14 2 -21 16 -25 28 -7 31 -2 17 23 -13 26 -26 27
-33 2z"/>
<path d="M1835 1438 c-17 -4 -35 -6 -42 -4 -6 3 -17 -2 -24 -10 -8 -10 -14
-11 -19 -4 -4 6 -26 -9 -54 -36 -51 -49 -55 -61 -12 -44 15 5 40 10 56 10 16
0 30 4 32 10 2 5 27 10 56 11 64 3 82 19 55 52 -15 20 -23 22 -48 15z"/>
<path d="M1692 1328 c-18 -5 -30 -13 -27 -18 10 -16 45 -11 52 6 4 12 7 13 14
3 4 -8 11 -11 14 -8 14 14 -22 26 -53 17z"/>
<path d="M1746 1211 c-6 -9 54 -24 63 -16 7 8 -20 25 -41 25 -9 0 -19 -4 -22
-9z"/>
<path d="M1460 1089 c0 -11 -4 -18 -9 -14 -5 3 -12 1 -16 -5 -4 -6 5 -10 19
-10 14 0 26 4 26 9 0 5 3 16 6 25 4 11 1 16 -10 16 -9 0 -16 -8 -16 -21z"/>
<path d="M1305 1051 c-7 -12 12 -24 25 -16 11 7 4 25 -10 25 -5 0 -11 -4 -15
-9z"/>
<path d="M1415 950 c3 -5 8 -10 11 -10 2 0 4 5 4 10 0 6 -5 10 -11 10 -5 0 -7
-4 -4 -10z"/>
<path d="M1628 953 c7 -3 16 -2 19 1 4 3 -2 6 -13 5 -11 0 -14 -3 -6 -6z"/>
<path d="M1753 718 c-27 -13 -30 -29 -5 -24 43 8 72 19 72 27 0 12 -40 10 -67
-3z"/>
<path d="M1695 630 c-3 -5 -1 -10 4 -10 6 0 11 5 11 10 0 6 -2 10 -4 10 -3 0
-8 -4 -11 -10z"/>
<path d="M1654 617 c-3 -9 -3 -21 1 -27 4 -6 1 -18 -6 -26 -10 -12 -9 -13 3
-9 9 4 30 -8 53 -29 21 -20 42 -33 47 -30 6 4 13 2 17 -3 8 -13 101 -23 101
-12 0 5 7 9 15 9 18 0 18 5 5 29 -5 11 -21 18 -40 19 -44 1 -90 12 -90 21 0 5
-12 6 -27 4 l-28 -5 23 19 c26 22 20 33 -18 33 -14 0 -31 5 -38 12 -9 9 -13 7
-18 -5z"/>
<path d="M1529 479 c-8 -5 -7 -8 4 -10 11 -3 9 -9 -11 -24 -26 -18 -26 -18
-12 0 8 10 10 16 4 12 -6 -3 -24 -11 -39 -17 l-28 -11 33 -24 c38 -28 60 -32
60 -11 0 8 7 22 16 30 8 9 12 21 8 28 -5 7 -2 9 9 5 8 -3 18 0 20 8 6 15 -45
26 -64 14z"/>
</g>
</svg>
